<svg width="191" height="191" viewBox="0 0 191 191" fill="none" xmlns="http://www.w3.org/2000/svg">
<path d="M95.5 191C148.243 191 191 148.243 191 95.5C191 42.7568 148.243 0 95.5 0C42.7568 0 0 42.7568 0 95.5C0 148.243 42.7568 191 95.5 191Z" fill="#2F2E2E"/>
<path d="M95.5 180.5C142.444 180.5 180.5 142.444 180.5 95.5C180.5 48.5558 142.444 10.5 95.5 10.5C48.5558 10.5 10.5 48.5558 10.5 95.5C10.5 142.444 48.5558 180.5 95.5 180.5Z" fill="#2F2E2E" stroke="#FAFAFA" stroke-width="5"/>
<path d="M88.776 71.096C88.776 73.528 88.232 75.512 87.144 77.048C86.12 78.52 84.616 79.256 82.632 79.256C80.84 79.256 79.24 78.584 77.832 77.24C78.728 76.6 79.4 75.672 79.848 74.456C80.36 73.24 80.616 71.992 80.616 70.712C80.616 68.728 79.976 67.096 78.696 65.816C77.416 64.536 75.464 63.896 72.84 63.896C69.96 63.896 67.88 64.696 66.6 66.296C65.32 67.896 64.68 70.04 64.68 72.728C64.68 75.864 65.416 78.424 66.888 80.408C68.424 82.392 70.312 84.184 72.552 85.784C74.792 87.32 77.192 88.792 79.752 90.2C82.376 91.608 84.808 93.272 87.048 95.192C89.288 97.112 91.144 99.448 92.616 102.2C94.152 104.888 94.92 108.344 94.92 112.568C94.92 116.152 94.312 119.224 93.096 121.784C91.944 124.344 90.344 126.456 88.296 128.12C86.248 129.72 83.816 130.872 81 131.576C78.184 132.344 75.112 132.728 71.784 132.728C68.84 132.728 65.928 132.408 63.048 131.768C60.232 131.192 57.704 130.232 55.464 128.888C53.288 127.48 51.528 125.656 50.184 123.416C48.84 121.112 48.168 118.328 48.168 115.064C48.168 112.888 48.456 110.904 49.032 109.112C49.672 107.32 50.504 105.816 51.528 104.6C52.616 103.384 53.864 102.456 55.272 101.816C56.68 101.112 58.152 100.76 59.688 100.76C60.456 100.76 61.288 100.856 62.184 101.048C63.08 101.24 63.976 101.592 64.872 102.104C65.768 102.552 66.6 103.192 67.368 104.024C68.136 104.856 68.744 105.88 69.192 107.096C68.04 107.096 66.888 107.224 65.736 107.48C64.584 107.736 63.528 108.184 62.568 108.824C61.672 109.464 60.936 110.36 60.36 111.512C59.784 112.6 59.496 114.008 59.496 115.736C59.496 119.064 60.52 121.464 62.568 122.936C64.616 124.344 67.176 125.048 70.248 125.048C73.32 125.048 75.688 124.312 77.352 122.84C79.016 121.368 79.848 118.84 79.848 115.256C79.848 111.928 79.144 109.112 77.736 106.808C76.392 104.504 74.664 102.488 72.552 100.76C70.44 99.032 68.168 97.432 65.736 95.96C63.368 94.424 61.128 92.792 59.016 91.064C56.904 89.272 55.144 87.192 53.736 84.824C52.392 82.456 51.72 79.544 51.72 76.088C51.72 70.52 53.576 66.296 57.288 63.416C61 60.472 66.056 59 72.456 59C73.352 59 74.696 59.096 76.488 59.288C78.344 59.416 80.168 59.896 81.96 60.728C83.816 61.496 85.416 62.712 86.76 64.376C88.104 65.976 88.776 68.216 88.776 71.096ZM139.589 71.096C139.589 73.528 139.045 75.512 137.957 77.048C136.933 78.52 135.429 79.256 133.445 79.256C131.653 79.256 130.053 78.584 128.645 77.24C129.541 76.6 130.213 75.672 130.661 74.456C131.173 73.24 131.429 71.992 131.429 70.712C131.429 68.728 130.789 67.096 129.509 65.816C128.229 64.536 126.277 63.896 123.653 63.896C120.773 63.896 118.693 64.696 117.413 66.296C116.133 67.896 115.493 70.04 115.493 72.728C115.493 75.864 116.229 78.424 117.701 80.408C119.237 82.392 121.125 84.184 123.365 85.784C125.605 87.32 128.005 88.792 130.565 90.2C133.189 91.608 135.621 93.272 137.861 95.192C140.101 97.112 141.957 99.448 143.429 102.2C144.965 104.888 145.733 108.344 145.733 112.568C145.733 116.152 145.125 119.224 143.909 121.784C142.757 124.344 141.157 126.456 139.109 128.12C137.061 129.72 134.629 130.872 131.813 131.576C128.997 132.344 125.925 132.728 122.597 132.728C119.653 132.728 116.741 132.408 113.861 131.768C111.045 131.192 108.517 130.232 106.277 128.888C104.101 127.48 102.341 125.656 100.997 123.416C99.6525 121.112 98.9805 118.328 98.9805 115.064C98.9805 112.888 99.2685 110.904 99.8445 109.112C100.485 107.32 101.317 105.816 102.341 104.6C103.429 103.384 104.677 102.456 106.085 101.816C107.493 101.112 108.965 100.76 110.501 100.76C111.269 100.76 112.101 100.856 112.997 101.048C113.893 101.24 114.789 101.592 115.685 102.104C116.581 102.552 117.413 103.192 118.181 104.024C118.949 104.856 119.557 105.88 120.005 107.096C118.853 107.096 117.701 107.224 116.549 107.48C115.397 107.736 114.341 108.184 113.381 108.824C112.485 109.464 111.749 110.36 111.173 111.512C110.597 112.6 110.309 114.008 110.309 115.736C110.309 119.064 111.333 121.464 113.381 122.936C115.429 124.344 117.989 125.048 121.061 125.048C124.133 125.048 126.501 124.312 128.165 122.84C129.829 121.368 130.661 118.84 130.661 115.256C130.661 111.928 129.957 109.112 128.549 106.808C127.205 104.504 125.477 102.488 123.365 100.76C121.253 99.032 118.981 97.432 116.549 95.96C114.181 94.424 111.941 92.792 109.829 91.064C107.717 89.272 105.957 87.192 104.549 84.824C103.205 82.456 102.533 79.544 102.533 76.088C102.533 70.52 104.389 66.296 108.101 63.416C111.813 60.472 116.869 59 123.269 59C124.165 59 125.509 59.096 127.301 59.288C129.157 59.416 130.981 59.896 132.773 60.728C134.629 61.496 136.229 62.712 137.573 64.376C138.917 65.976 139.589 68.216 139.589 71.096Z" fill="#FAFAFA"/>
</svg>
